<svg xmlns="http://www.w3.org/2000/svg" viewBox="0 0 100 100" width="100" height="100">
  <!-- Journal/Planner book - now bigger square -->
  <rect x="15" y="15" width="70" height="70" fill="#D6F7AD" rx="4"/>
  
  <!-- Notebook lines -->
  <line x1="35" y1="32" x2="70" y2="32" stroke="#4CAF50" stroke-width="0.3"/>
  <line x1="35" y1="50" x2="70" y2="50" stroke="#4CAF50" stroke-width="0.3"/>
  <line x1="35" y1="68" x2="70" y2="68" stroke="#4CAF50" stroke-width="0.3"/>

  <!-- Book spine - darker green -->
  <rect x="15" y="15" width="16" height="70" fill="#C8F299" rx="4"/>
  
  <!-- Spiral binding - evenly spaced leaves with lines -->
  <circle cx="29" cy="32" r="3" fill="#D6F7AD"/>
  <path d="M29 29 Q23 22 17 29 Q23 36 29 29" fill="#4CAF50"/>
  <line x1="17" y1="29" x2="29" y2="29" stroke="#2E7D32" stroke-width="0.2"/>
  
  <circle cx="29" cy="50" r="3" fill="#D6F7AD"/>
  <path d="M29 47 Q23 40 17 47 Q23 54 29 47" fill="#4CAF50"/>
  <line x1="17" y1="47" x2="29" y2="47" stroke="#2E7D32" stroke-width="0.2"/>
  
  <circle cx="29" cy="68" r="3" fill="#D6F7AD"/>
  <path d="M29 65 Q23 58 17 65 Q23 72 29 65" fill="#4CAF50"/>
  <line x1="17" y1="65" x2="29" y2="65" stroke="#2E7D32" stroke-width="0.2"/>
  
  <!-- Theme color dots aligned with leaves -->
  <circle cx="29" cy="32" r="4" fill="#95E1D3" stroke="#95E1D3" stroke-width="0.5"/>
  <circle cx="29" cy="50" r="4" fill="#FCE38A" stroke="#FCE38A" stroke-width="0.5"/>
  <circle cx="29" cy="68" r="4" fill="#F38181" stroke="#F38181" stroke-width="0.5"/>
</svg>
